<svg width="800" height="600" viewBox="0 0 800 600" fill="none" xmlns="http://www.w3.org/2000/svg">
  <!-- Background with blur effect -->
  <rect width="800" height="600" rx="24" fill="white" filter="drop-shadow(0px 4px 16px rgba(0, 0, 0, 0.08))"/>
  
  <!-- Header -->
  <g transform="translate(40, 40)">
    <text x="0" y="0" font-family="Plus Jakarta Sans" font-size="18" font-weight="700" fill="#11141A">
      Demo for SG
    </text>
  </g>

  <!-- App Icons Container -->
  <g transform="translate(40, 100)">
    <!-- First App Icon -->
    <g transform="translate(0, 0)">
      <rect width="60" height="60" rx="16" fill="#FFFFFF" filter="drop-shadow(0px 2px 8px rgba(0, 0, 0, 0.05))"/>
      <circle cx="30" cy="30" r="20" fill="#4262FF"/>
      <text x="30" y="35" font-family="Plus Jakarta Sans" font-size="14" fill="white" text-anchor="middle">T</text>
    </g>

    <!-- Connection Line with Arrow -->
    <path d="M70 30 L150 30" stroke="rgba(0, 50, 107, 0.12)" stroke-width="2" stroke-dasharray="4 4"/>
    <path d="M140 25 L150 30 L140 35" stroke="rgba(0, 50, 107, 0.12)" stroke-width="2"/>

    <!-- Second App Icon -->
    <g transform="translate(160, 0)">
      <rect width="60" height="60" rx="16" fill="#FFFFFF" filter="drop-shadow(0px 2px 8px rgba(0, 0, 0, 0.05))"/>
      <circle cx="30" cy="30" r="20" fill="#25D366"/>
      <text x="30" y="35" font-family="Plus Jakarta Sans" font-size="14" fill="white" text-anchor="middle">W</text>
    </g>

    <!-- Connection Line with Arrow -->
    <path d="M230 30 L310 30" stroke="rgba(0, 50, 107, 0.12)" stroke-width="2" stroke-dasharray="4 4"/>
    <path d="M300 25 L310 30 L300 35" stroke="rgba(0, 50, 107, 0.12)" stroke-width="2"/>

    <!-- Third App Icon -->
    <g transform="translate(320, 0)">
      <rect width="60" height="60" rx="16" fill="#FFFFFF" filter="drop-shadow(0px 2px 8px rgba(0, 0, 0, 0.05))"/>
      <circle cx="30" cy="30" r="20" fill="#000000"/>
      <text x="30" y="35" font-family="Plus Jakarta Sans" font-size="14" fill="white" text-anchor="middle">X</text>
    </g>
  </g>

  <!-- Automation Rules -->
  <g transform="translate(40, 200)">
    <rect width="720" height="280" rx="16" fill="#FFFFFF" stroke="#E6E6F0" stroke-width="1"/>
    
    <!-- Rule Header -->
    <g transform="translate(24, 24)">
      <text x="0" y="0" font-family="Plus Jakarta Sans" font-size="14" font-weight="700" fill="#11141A">
        Automation Rules
      </text>
    </g>

    <!-- Rule Items -->
    <g transform="translate(24, 60)">
      <!-- Rule 1 -->
      <g>
        <rect width="672" height="60" rx="8" fill="#F9F9FB"/>
        <text x="16" y="35" font-family="Plus Jakarta Sans" font-size="14" fill="#807E96">
          When <tspan fill="#4262FF"> 8pm review work group in Telegram</tspan> → Send Summary and Task to Notion Page
        </text>
      </g>

      <!-- Rule 2 -->
      <g transform="translate(0, 80)">
        <rect width="672" height="60" rx="8" fill="#F9F9FB"/>
        <text x="16" y="35" font-family="Plus Jakarta Sans" font-size="14" fill="#807E96">
          When <tspan fill="#25D366">task completed in WhatsApp</tspan> → Post update Notion
        </text>
      </g>
    </g>
  </g>

  <!-- Status Bar -->
  <g transform="translate(40, 520)">
    <rect width="720" height="40" rx="8" fill="#F4F4F8"/>
    <text x="24" y="25" font-family="Plus Jakarta Sans" font-size="12" fill="#807E96">
      All automations running • Last sync 2 minutes ago
    </text>
  </g>

  <!-- Decorative Elements -->
  <g transform="translate(720, 40)">
    <circle cx="20" cy="20" r="20" fill="#4262FF" opacity="0.1"/>
    <path d="M20,10 L20,30 M10,20 L30,20" stroke="#4262FF" stroke-width="2"/>
  </g>
</svg> 