<svg width="800" height="600" viewBox="0 0 800 600" fill="none" xmlns="http://www.w3.org/2000/svg">
  <!-- Background with blur effect -->
  <rect width="800" height="600" rx="24" fill="white" filter="drop-shadow(0px 4px 16px rgba(0, 0, 0, 0.08))"/>
  
  <!-- Search Query -->
  <g transform="translate(40, 40)">
    <rect width="720" height="60" rx="16" fill="#F4F4F8"/>
    <text x="24" y="35" font-family="Plus Jakarta Sans" font-size="14" fill="#807E96">
      what time did linda say she was free?
    </text>
  </g>

  <!-- Search Result Card -->
  <g transform="translate(40, 120)">
    <rect width="720" height="160" rx="16" fill="white" 
          filter="drop-shadow(0px 2px 4px rgba(0, 0, 0, 0.05))"/>
    
    <!-- AI Response -->
    <g transform="translate(24, 24)">
      <circle cx="16" cy="16" r="16" fill="#4262FF"/>
      <path d="M10 16L15 21L22 11" stroke="white" stroke-width="2"/>
      
      <text x="48" y="20" font-family="Plus Jakarta Sans" font-size="14" font-weight="700" fill="#333333">
        Tuesday between 2:00pm and 3:00pm.
      </text>
    </g>

    <!-- Original Message Context -->
    <g transform="translate(24, 80)">
      <line x1="0" y1="0" x2="672" y2="0" stroke="#E6E6F0" stroke-width="1"/>
      
      <!-- Message Context -->
      <g transform="translate(0, 24)">
        <rect width="48" height="24" rx="12" fill="rgba(188, 188, 204, 0.15)"/>
        <text x="12" y="16" font-family="Plus Jakarta Sans" font-size="12" fill="#807E96">
          Linda
        </text>
        
        <text x="60" y="16" font-family="Plus Jakarta Sans" font-size="14" fill="#807E96">
          <tspan x="60">...between </tspan>
          <tspan fill="#4262FF">two and three</tspan>
          <tspan> should work for me...</tspan>
        </text>
      </g>
    </g>
  </g>

  <!-- Additional Results Preview -->
  <g transform="translate(40, 300)">
    <rect width="720" height="80" rx="16" fill="#F9F9FB" opacity="0.8"/>
    <text x="24" y="45" font-family="Plus Jakarta Sans" font-size="14" fill="#807E96">
      Found 3 more mentions of Linda's availability...
    </text>
  </g>

  <!-- Decorative Elements -->
  <g transform="translate(720, 40)">
    <circle cx="20" cy="20" r="20" fill="#4262FF" opacity="0.1"/>
    <path d="M20,10 L20,30 M10,20 L30,20" stroke="#4262FF" stroke-width="2"/>
  </g>

  <!-- Search Highlights -->
  <g transform="translate(40, 400)">
    <rect width="720" height="40" rx="8" fill="#F4F4F8"/>
    <text x="24" y="25" font-family="Plus Jakarta Sans" font-size="12" fill="#807E96">
      Showing results from last 30 days • AI-powered context search
    </text>
  </g>
</svg> 