<svg width="800" height="600" viewBox="0 0 800 600" fill="none" xmlns="http://www.w3.org/2000/svg">
  <!-- Background -->
  <rect width="800" height="600" rx="24" fill="white" filter="drop-shadow(0px 4px 16px rgba(0, 0, 0, 0.08))"/>
  
  <!-- Header Section -->
  <g transform="translate(40, 40)">
    <text x="0" y="0" font-family="Plus Jakarta Sans" font-size="24" font-weight="700" fill="#11141A">
      "Line" integration Service
    </text>
  </g>

  <!-- Tabs Section -->
  <g transform="translate(40, 100)">
    <!-- Timeline Tab -->
    <g>
      <rect width="200" height="40" rx="8" fill="#F4F4F8"/>
      <text x="40" y="25" font-family="Plus Jakarta Sans" font-size="14" font-weight="600" fill="#11141A">
        Timeline
      </text>
      <text x="120" y="25" font-family="Plus Jakarta Sans" font-size="14" fill="#72718A">
        Q1 2024
      </text>
    </g>

    <!-- Budget Tab -->
    <g transform="translate(220, 0)">
      <rect width="200" height="40" rx="8" fill="#F4F4F8"/>
      <text x="40" y="25" font-family="Plus Jakarta Sans" font-size="14" font-weight="600" fill="#11141A">
        Budget
      </text>
      <rect x="100" y="8" width="80" height="24" rx="4" fill="#F9EED1"/>
      <text x="110" y="25" font-family="Plus Jakarta Sans" font-size="14" fill="#96720E">
        $15,000
      </text>
    </g>

    <!-- Feature Request Tab -->
    <g transform="translate(440, 0)">
      <rect width="200" height="40" rx="8" fill="#F4F4F8"/>
      <text x="40" y="25" font-family="Plus Jakarta Sans" font-size="14" font-weight="600" fill="#11141A">
        Feature request
      </text>
    </g>
  </g>

  <!-- Content Area -->
  <g transform="translate(40, 160)">
    <!-- Timeline Items -->
    <g>
      <rect width="720" height="360" rx="16" fill="#FFFFFF" stroke="#E6E6F0" stroke-width="1"/>
      
      <!-- Timeline Items -->
      <g transform="translate(24, 24)">
        <!-- Q1 Item -->
        <g>
          <circle cx="12" cy="12" r="6" fill="#4262FF"/>
          <text x="32" y="16" font-family="Plus Jakarta Sans" font-size="14" fill="#11141A">
            Q1 2024
          </text>
          <rect x="32" y="32" width="640" height="40" rx="8" fill="#DEF2E6"/>
          <text x="48" y="56" font-family="Plus Jakarta Sans" font-size="14" fill="#186E3A">
            $8,000 - Easier onboarding
          </text>
        </g>

        <!-- Q2 Item -->
        <g transform="translate(0, 100)">
          <circle cx="12" cy="12" r="6" fill="#4262FF"/>
          <text x="32" y="16" font-family="Plus Jakarta Sans" font-size="14" fill="#11141A">
            Q2 2024
          </text>
          <rect x="32" y="32" width="640" height="40" rx="8" fill="#F9EED1"/>
          <text x="48" y="56" font-family="Plus Jakarta Sans" font-size="14" fill="#96720E">
            Line integration
          </text>
        </g>
      </g>
    </g>
  </g>

  <!-- Decorative Elements -->
  <g transform="translate(720, 40)">
    <circle cx="20" cy="20" r="20" fill="#4262FF" opacity="0.1"/>
    <path d="M20,10 L20,30 M10,20 L30,20" stroke="#4262FF" stroke-width="2"/>
  </g>
</svg> 